<svg xmlns="http://www.w3.org/2000/svg" height="20" width="20" viewBox="0 0 20 20"><title>circle question</title><g fill="#212121" class="nc-icon-wrapper"><path d="m10,2C5.589,2,2,5.589,2,10s3.589,8,8,8,8-3.589,8-8S14.411,2,10,2Zm0,13.5c-.69,0-1.25-.56-1.25-1.25s.56-1.25,1.25-1.25,1.25.56,1.25,1.25-.56,1.25-1.25,1.25Zm1.668-5.121c-.466.331-.622.467-.686.805-.09.481-.51.816-.982.816-.061,0-.123-.005-.185-.017-.543-.102-.9-.625-.799-1.167.218-1.16.985-1.706,1.492-2.066.513-.365.634-.468.634-.913,0-.776-.641-.837-.837-.837-.988,0-1.227.657-1.305.873-.188.52-.763.788-1.282.598-.519-.189-.787-.763-.598-1.282.499-1.371,1.689-2.189,3.185-2.189,1.375,0,2.837.994,2.837,2.837,0,1.494-.888,2.125-1.475,2.542Z" stroke-width="0" fill="#212121"></path></g></svg>