<svg xmlns="http://www.w3.org/2000/svg" height="20" width="20" viewBox="0 0 20 20"><title>triangle warning filled</title><g fill="#ffffff" class="nc-icon-wrapper"><path d="m17.794,12.5L12.598,3.5c-.542-.939-1.514-1.5-2.598-1.5s-2.056.561-2.598,1.5L2.206,12.5c-.542.938-.543,2.061,0,3,.542.939,1.514,1.5,2.598,1.5h10.393c1.084,0,2.056-.561,2.598-1.5.542-.939.542-2.062,0-3Zm-8.794-5.5c0-.552.447-1,1-1s1,.448,1,1v3.5c0,.552-.447,1-1,1s-1-.448-1-1v-3.5Zm1,8c-.689,0-1.25-.561-1.25-1.25s.561-1.25,1.25-1.25,1.25.561,1.25,1.25-.561,1.25-1.25,1.25Z" stroke-width="0" ></path></g></svg>