<svg xmlns="http://www.w3.org/2000/svg" width="591" height="152" fill="none" viewBox="0 0 591 152">
  <rect width="591" height="152" fill="#001F3F" rx="30"/>
  <path fill="#D4A743" d="m176.205 98-15.873-54.545H174.9l8.23 35.742h.453l9.401-35.742h11.879l9.402 35.822h.452l8.257-35.822h14.542L221.669 98h-12.705l-9.827-33.079h-.426L188.883 98h-12.678Zm65.932 0V57.09h13.024V98h-13.024Zm6.525-45.676c-1.828 0-3.4-.604-4.714-1.812-1.314-1.225-1.971-2.698-1.971-4.42 0-1.705.657-3.161 1.971-4.369 1.314-1.225 2.886-1.837 4.714-1.837 1.847 0 3.418.612 4.715 1.837 1.313 1.208 1.97 2.664 1.97 4.368 0 1.723-.657 3.196-1.97 4.421-1.297 1.208-2.868 1.812-4.715 1.812Zm37.055 4.767v9.588h-25.808v-9.588h25.808Zm-20.401-9.801h13.023v37.846c0 .799.125 1.447.373 1.944.267.48.648.826 1.146 1.039.497.195 1.092.293 1.784.293.497 0 1.021-.044 1.571-.133.569-.107.995-.195 1.279-.267l1.971 9.402c-.622.178-1.501.4-2.637.666-1.119.266-2.459.435-4.022.506-3.054.142-5.673-.213-7.857-1.065-2.166-.87-3.826-2.22-4.98-4.049-1.136-1.828-1.687-4.128-1.651-6.898V47.29Zm61.424 22.292-11.959.32a4.453 4.453 0 0 0-1.012-2.264c-.55-.675-1.269-1.199-2.157-1.572-.87-.39-1.882-.585-3.036-.585-1.509 0-2.797.301-3.862.905-1.048.604-1.563 1.42-1.545 2.45-.018.8.302 1.492.959 2.078.675.586 1.873 1.056 3.596 1.411l7.883 1.492c4.084.781 7.12 2.077 9.109 3.888 2.006 1.811 3.018 4.208 3.036 7.191-.018 2.806-.852 5.247-2.504 7.325-1.633 2.077-3.87 3.693-6.711 4.847-2.841 1.136-6.09 1.704-9.748 1.704-5.842 0-10.449-1.198-13.823-3.595-3.356-2.415-5.273-5.647-5.753-9.695l12.864-.32c.284 1.492 1.021 2.628 2.211 3.41 1.189.781 2.708 1.172 4.554 1.172 1.669 0 3.027-.311 4.075-.933 1.048-.621 1.58-1.447 1.598-2.477-.018-.923-.426-1.66-1.225-2.21-.799-.568-2.051-1.012-3.755-1.332l-7.138-1.358c-4.102-.746-7.156-2.122-9.162-4.128-2.007-2.024-3.001-4.599-2.983-7.724-.018-2.734.71-5.07 2.184-7.005 1.474-1.953 3.569-3.444 6.285-4.474 2.717-1.03 5.922-1.545 9.615-1.545 5.54 0 9.908 1.163 13.104 3.49 3.196 2.307 4.962 5.486 5.3 9.534Z"/>
  <path fill="#fff" d="m342.281 43.455 12.198 39.95h.453l12.198-39.95h14.755L363.481 98H345.93l-18.404-54.545h14.755Zm58.868 55.317c-4.28 0-7.973-.843-11.08-2.53-3.09-1.704-5.469-4.128-7.138-7.27-1.651-3.161-2.477-6.917-2.477-11.267 0-4.226.835-7.919 2.504-11.08 1.669-3.178 4.021-5.646 7.058-7.403 3.036-1.776 6.614-2.664 10.733-2.664 2.912 0 5.575.453 7.99 1.358 2.415.906 4.501 2.247 6.259 4.022 1.758 1.776 3.125 3.969 4.102 6.579.976 2.592 1.464 5.566 1.464 8.922v3.25h-35.555v-7.565h23.437c-.018-1.385-.346-2.619-.985-3.702a6.698 6.698 0 0 0-2.637-2.53c-1.101-.621-2.37-.932-3.809-.932-1.456 0-2.761.328-3.915.985a7.249 7.249 0 0 0-2.743 2.637c-.675 1.1-1.03 2.353-1.065 3.755v7.697c0 1.67.328 3.134.985 4.395a7.102 7.102 0 0 0 2.797 2.903c1.207.693 2.645 1.039 4.314 1.039 1.154 0 2.202-.16 3.143-.48.941-.32 1.749-.79 2.424-1.411a5.84 5.84 0 0 0 1.518-2.29l11.958.346c-.497 2.68-1.589 5.016-3.276 7.004-1.669 1.971-3.862 3.507-6.578 4.608-2.717 1.083-5.86 1.624-9.428 1.624Zm38.266-24.103V98h-13.024V57.09h12.385v7.512h.452c.906-2.504 2.451-4.466 4.635-5.886 2.184-1.439 4.785-2.158 7.803-2.158 2.877 0 5.371.648 7.484 1.944 2.131 1.279 3.782 3.072 4.954 5.38 1.19 2.29 1.776 4.972 1.758 8.044V98h-13.024V74.483c.018-2.273-.559-4.049-1.731-5.327-1.154-1.279-2.761-1.918-4.821-1.918-1.367 0-2.574.302-3.622.906-1.03.586-1.829 1.43-2.397 2.53-.55 1.1-.834 2.432-.852 3.995Zm60.079 5.673V57.091h12.997V98H500.08v-7.617h-.426c-.906 2.503-2.45 4.492-4.634 5.966-2.167 1.456-4.785 2.184-7.857 2.184-2.788 0-5.238-.64-7.351-1.918-2.113-1.278-3.755-3.063-4.927-5.353-1.172-2.308-1.767-5.007-1.785-8.097V57.091h13.024v23.517c.018 2.22.604 3.969 1.758 5.247s2.725 1.918 4.714 1.918c1.296 0 2.459-.284 3.489-.852 1.048-.587 1.873-1.43 2.477-2.53.621-1.12.932-2.469.932-4.049Zm39.585 18.43c-4.279 0-7.973-.843-11.08-2.53-3.089-1.704-5.469-4.128-7.138-7.27-1.651-3.161-2.476-6.917-2.476-11.267 0-4.226.834-7.919 2.503-11.08 1.669-3.178 4.022-5.646 7.058-7.403 3.036-1.776 6.614-2.664 10.733-2.664 2.912 0 5.576.453 7.99 1.358 2.415.906 4.501 2.247 6.259 4.022 1.758 1.776 3.125 3.969 4.102 6.579.976 2.592 1.465 5.566 1.465 8.922v3.25h-35.556v-7.565h23.437c-.017-1.385-.346-2.619-.985-3.702a6.691 6.691 0 0 0-2.637-2.53c-1.101-.621-2.37-.932-3.808-.932-1.456 0-2.761.328-3.916.985a7.249 7.249 0 0 0-2.743 2.637c-.674 1.1-1.03 2.353-1.065 3.755v7.697c0 1.67.328 3.134.985 4.395a7.102 7.102 0 0 0 2.797 2.903c1.207.693 2.645 1.039 4.314 1.039 1.155 0 2.202-.16 3.143-.48.941-.32 1.749-.79 2.424-1.411a5.82 5.82 0 0 0 1.518-2.29l11.958.346c-.497 2.68-1.589 5.016-3.275 7.004-1.669 1.971-3.862 3.507-6.579 4.608-2.717 1.083-5.859 1.624-9.428 1.624Z"/>
  <path fill="#D4A743" d="m94.545 57.324-26.25-17.742c-3.12-2.112-7.475-2.107-10.59 0l-26.25 17.742C29.29 58.787 28 61.104 28 63.518v32.254C28 102.518 34.165 108 41.75 108h17.5V91.326c0-1.841 1.68-3.335 3.75-3.335 2.07 0 3.75 1.494 3.75 3.335V108h17.5C91.835 108 98 102.518 98 95.772V63.518c0-2.415-1.29-4.727-3.455-6.194Z"/>
  <path fill="#001F3F" d="m109.545 57.324-26.25-17.742c-3.12-2.112-7.475-2.107-10.59 0l-26.25 17.742C44.29 58.787 43 61.104 43 63.518v32.254C43 102.518 49.165 108 56.75 108h17.5V91.326c0-1.841 1.68-3.335 3.75-3.335 2.07 0 3.75 1.494 3.75 3.335V108h17.5c7.585 0 13.75-5.482 13.75-12.228V63.518c0-2.415-1.29-4.727-3.455-6.194Z"/>
  <path fill="#fff" d="m116.545 57.324-26.25-17.742c-3.12-2.112-7.475-2.107-10.59 0l-26.25 17.742C51.29 58.787 50 61.104 50 63.518v32.254C50 102.518 56.165 108 63.75 108h17.5V91.326c0-1.841 1.68-3.335 3.75-3.335 2.07 0 3.75 1.494 3.75 3.335V108h17.5c7.585 0 13.75-5.482 13.75-12.228V63.518c0-2.415-1.29-4.727-3.455-6.194Z"/>
</svg>
